<svg width="54" height="54" viewBox="0 0 54 54" fill="none" xmlns="http://www.w3.org/2000/svg">
<path d="M27.0585 0.25708C21.2968 0.256928 15.6891 2.11659 11.0692 5.55946C6.44937 9.00233 3.06426 13.8445 1.41737 19.3657C-0.22952 24.887 -0.0502072 30.7923 1.92864 36.2035C3.90748 41.6146 7.58014 46.2425 12.4004 49.3987C13.0022 42.4155 18.5362 33.9209 21.649 27.1037C20.307 28.2278 17.0904 30.3307 15.6965 30.9083C13.1959 32.0428 6.61391 32.8798 6.58625 32.866C6.55858 32.8521 7.14656 32.0947 10.626 29.971C13.981 27.92 18.0035 27.1314 18.3874 27.0622C10.9512 27.581 6.91829 25.9554 7.02897 24.6861C7.02897 23.9943 5.14741 23.0709 5.14741 23.0674C6.14699 22.8357 7.13964 22.5936 8.11846 22.3514C9.73715 21.9122 11.7986 20.9956 14.1332 21.2896C17.0973 21.76 19.9577 25.5162 20.518 25.6995C20.9953 25.8413 20.8431 25.3536 20.8431 25.3536C20.8431 25.3536 19.5323 23.9701 17.6196 21.7462C16.16 20.0168 15.6343 18.827 16.1669 16.4889C16.4599 15.3441 16.8702 14.2326 17.3913 13.172C17.8721 12.1655 18.4082 10.7855 18.4082 10.7785C18.6295 12.3108 21.3481 11.4392 22.0779 14.1681C22.8077 16.897 22.0779 23.1158 22.0779 24.1327C22.0779 25.1496 22.3408 25.025 22.4929 24.6895C22.6451 24.354 24.0632 18.118 24.2811 17.3225C24.499 16.5269 25.4259 13.4625 25.7545 11.5706C26.2803 9.40542 28.3313 5.6527 28.4281 5.14772C28.9539 3.91296 29.4104 2.53292 29.4657 2.27698C29.4664 2.26315 29.4664 2.2493 29.4657 2.23547C29.4657 2.23547 29.8566 3.75386 30.1125 5.02667C30.2163 5.47976 31.0326 9.34316 30.0434 11.6709C29.5868 13.6977 23.9664 24.4059 23.6378 24.7172C23.4856 25.0631 23.6689 25.1703 24.5509 24.1777C25.509 23.2127 30.4584 16.7552 33.0524 13.5075C35.7122 10.2805 37.9535 10.7785 39.1191 8.82781C39.1191 8.88315 38.8873 10.4776 38.6729 11.6398C38.4362 13.0117 37.9992 14.3413 37.3759 15.5862C35.9405 18.3774 34.2284 19.8508 31.1813 21.76C27.1795 24.2122 24.6685 25.4401 24.6685 25.4608C24.6685 25.4816 24.0909 25.9209 24.6685 25.8067C25.3602 25.7341 31.6482 21.8984 35.0966 21.2135C37.7287 20.8365 38.9012 21.9364 40.0668 22.5244L42.2734 23.5067C42.2734 23.5067 39.458 24.6515 38.7697 25.4781C37.5557 27.1245 32.122 28.5633 25.4674 27.332C25.7127 27.4153 25.9454 27.5317 26.1592 27.6779C26.8491 28.1429 27.3945 28.7925 27.7329 29.5525C28.7705 31.8457 28.8466 32.7968 28.8224 32.7864C28.7982 32.7761 26.0554 32.9594 24.6512 31.5171C23.8176 30.7008 22.6451 28.2105 22.3511 27.0553C19.2383 34.0662 13.6421 42.834 13.3066 49.9763C15.9825 51.5776 18.9203 52.6935 21.9845 53.2725C21.6386 46.5626 22.2543 21.6908 52.2173 33.8829C50.4291 33.1911 36.1549 28.7363 23.9594 53.5734L24.1877 53.5976C25.123 53.6949 26.0628 53.7434 27.0031 53.7429C33.0056 53.743 38.8338 51.725 43.5511 48.0133C48.2684 44.3015 51.6008 39.1116 53.0128 33.2776C53.0404 33.1669 53.0647 33.0597 53.0923 32.9317C53.9735 29.0201 53.9653 24.9606 53.0684 21.0526C52.1715 17.1446 50.4088 13.4878 47.9102 10.3519C45.4116 7.21601 42.241 4.68098 38.632 2.93382C35.0231 1.18665 31.068 0.271919 27.0585 0.25708V0.25708Z" fill="white"/>
</svg>
